<svg xmlns="http://www.w3.org/2000/svg" width="161" height="167" viewBox="0 0 161 167"><path fill-rule="evenodd" d="M88 101v62h58l1-1h1l2-2v-1l1-1v-52l-1-1v-1l-2-2h-1l-1-1Zm-79 4v1l-1 1v49l1 1v2l3 3h1l1 1h58v-62H13ZM3 46v32l1 1v2l2 2h1l1 1h64V41l1-1h14l1 1v43h64l2-2h1v-1l1-1v-2l1-1V48l-1-1v-2l-1-1v-1h-1l-2-2h-4l-1-1h-5l-1 1-2-2v-1l1-1v-2l1-1V21l-1-1v-2l-1-1v-2l-1-1v-1l-3-3V9l-1-1h-1l-2-2h-1l-1-1h-1l-1-1h-2l-1-1h-12l-1 1h-3l-1 1h-3l-1 1h-1l-1 1h-1l-1 1h-1l-1 1h-1l-2 2h-1L82 22v1l-2 2-4-4v-1l-8-8h-1l-2-2h-1l-2-2h-1l-1-1h-1l-1-1h-2l-1-1h-2l-1-1h-4l-1-1H36l-1 1h-3l-1 1h-1l-2 2h-1l-4 4v1l-1 1v1l-1 1v1l-1 1v1l-1 1v5l-1 1v6l1 1v4l1 1v2l-1 1h-1l-1 1-1-1h-4l-1 1H8l-1 1H6l-2 2v1Zm125-24v3l1 1v3l-1 1v4l-1 1v1l-4 4H89l-1-1v-2l1-1v-1l2-2v-1l1-1v-1l9-9h1l2-2h1l1-1h2l1-1h2l1-1h11l4 4v1Zm-96-1 1-1v-1l1-1h1l2-2h10l1 1h3l1 1h1l1 1h1l1 1h1l2 2h1l6 6v1l3 3v1l1 1v1l1 1v1l1 1v1l-1 1H37l-5-5v-2l-1-1v-8l1-1Z"/></svg>